<svg xmlns="http://www.w3.org/2000/svg" xmlns:xlink="http://www.w3.org/1999/xlink" data-name="Layer 1" width="789.99" height="731" style=""><rect id="backgroundrect" width="100%" height="100%" x="0" y="0" fill="none" stroke="none"/><defs><linearGradient id="e8bc579c-b689-4b79-8d3e-12ed6a496947" x1="0.1085576495292483" y1="1.0173221638985044" x2="0.8914693990655459" y2="-0.017357848910048778"><stop offset="0" stop-color="gray" stop-opacity="0.25"/><stop offset="0.54" stop-color="gray" stop-opacity="0.12"/><stop offset="1" stop-color="gray" stop-opacity="0.1"/></linearGradient><linearGradient id="cfdf7721-0c02-41fc-8db3-2f80d97037f4" x1="533.2100219726562" y1="688.5800170898438" x2="533.2100219726562" y2="490.2799987792969" gradientTransform="matrix(1, 0, 0, 1, 0, 0)" xlink:href="#e8bc579c-b689-4b79-8d3e-12ed6a496947"/><linearGradient id="c1b02b18-c4d9-4578-b739-51fef2fdc4ab" x1="-602.7899780273438" y1="427.79998779296875" x2="-602.7899780273438" y2="229.5" gradientTransform="matrix(-1, 0, 0, 1, 48, 0)" xlink:href="#e8bc579c-b689-4b79-8d3e-12ed6a496947"/><linearGradient id="0b093351-16bd-4346-89bf-f32fc0d63148" x1="376.5" y1="427.5" x2="376.5" y2="242.61000061035156" gradientTransform="matrix(1, 0, 0, 1, 0, 0)" xlink:href="#e8bc579c-b689-4b79-8d3e-12ed6a496947"/><linearGradient id="81bfca67-d9d1-4d9e-a40d-a000f0d65a64" x1="3313.5" y1="702.5" x2="3313.5" y2="517.6099853515625" gradientTransform="matrix(-1, 0, 0, 1, 4122, 0)" xlink:href="#e8bc579c-b689-4b79-8d3e-12ed6a496947"/></defs><title>chating</title><g class="currentLayer" style=""><title>Layer 1</title><g opacity="0.5" id="svg_1"><path d="M551.67,43.99000000000001 l-332.5,0.81 A13.66,13.66 0 0 0 205.54000000000002,58.5 l1.51,621.89 a13.66,13.66 0 0 0 13.7,13.63 l332.5,-0.81 A13.66,13.66 0 0 0 566.88,679.5 l-1.51,-621.89 A13.66,13.66 0 0 0 551.67,43.99000000000001 z" fill="url(#e8bc579c-b689-4b79-8d3e-12ed6a496947)" id="svg_2"/></g><rect x="210.0500030517578" y="54.32000732421875" width="350.1099853515625" height="631.9500122070312" rx="13.640000343322754" ry="13.640000343322754" transform="rotate(-0.14000000059604645 -206.11000061035188,-83.05999755858902) " fill="#fff" id="svg_3"/><path id="869b38ff-715e-463a-98e7-ca2bce61d391" data-name="&lt;Path&gt;" d="M473.42999999999995,68.5 a28.38,28.38 0 0 1 -27.91,24.21 l-120.93,0.29000000000000004 a28.38,28.38 0 0 1 -28,-24.07 l-64.05,0.16000000000000003 a13.3,13.3 0 0 0 -13.27,13.33 l1.3900000000000001,573.67 A13.3,13.3 0 0 0 234,669.36 l306,-0.7400000000000001 a13.3,13.3 0 0 0 13.27,-13.33 l-1.3900000000000001,-573.67 a13.3,13.3 0 0 0 -13.33,-13.27 z" fill="#65abff" opacity="0.4" class="selected" fill-opacity="1"/><rect x="340.9400177001953" y="85.15999603271484" width="78.0199966430664" height="4.880000114440918" rx="2" ry="2" transform="rotate(-0.8600000143051147 -207.38999938964767,-75.65000152587882) " fill="#dbdbdb" id="svg_4"/><circle cx="435.53997802734375" cy="87.0999984741211" r="2.930000066757202" transform="rotate(-0.8600000143051147 -207.3699951171859,-74.81999969482476) " fill="#dbdbdb" id="svg_5"/><g opacity="0.5" id="svg_6"><path d="M427.07000000000005,504.63 a98.85,98.85 0 1 0 -154,82 l0.06000000000000001,0.44000000000000006 a33.84,33.84 0 0 0 11.21,7.13 l0.13,-0.44000000000000006 c4.63,4 24.12,10.33 46.51,10.27 h0.49000000000000005 c14.18,0 29.58,-2.5 43.12,-9.83 c0,0 0.12000000000000001,-0.26 0.30000000000000004,-0.7500000000000001 a35.21,35.21 0 0 0 9.32,-6.38 q0.08000000000000002,-0.5700000000000001 0.16000000000000003,-1.12 A98.74,98.74 0 0 0 427.07000000000005,504.63 z" fill="url(#cfdf7721-0c02-41fc-8db3-2f80d97037f4)" id="svg_7"/></g><circle cx="328.2099914550781" cy="504.6400146484375" r="95.88999938964844" fill="#f5f5f5" id="svg_8"/><path d="M291.58,544.07 s-22.85,1.87 -16.8,43.49 A32.82,32.82 0 0 0 285.65,594.5 l12.85,-43.49 z" fill="#fda57d" id="svg_9"/><path d="M365.72,544.07 s22.85,1.87 16.8,43.49 A32.82,32.82 0 0 1 371.65,594.5 L358.79999999999995,550.99 z" fill="#fda57d" id="svg_10"/><path d="M292.57,475.86 S281.7,507.5 275.77,504.5 c0,0 57.22,49.43 107.75,0 c0,0 -8.9,-15.82 -21.75,-28.67 z" fill="#333" id="svg_11"/><circle cx="329.25" cy="472.8900146484375" r="42.5099983215332" fill="#333" id="svg_12"/><path d="M365.28,544.07 H291.15 l-6.92,29.66 s-4.06,13.73 1,19.77 s52.28,19.77 87,1 a38.68,38.68 0 0 0 1,-24.71 c-4,-13.84 -1,-1 -1,-1 z" opacity="0.1" id="svg_13"/><path d="M366.27,544.07 H292.13 l-6.92,29.66 s-4.06,13.73 1,19.77 s52.28,19.77 87,1 a38.68,38.68 0 0 0 1,-24.71 c-4,-13.84 -1,-1 -1,-1 z" opacity="0.1" id="svg_14"/><path d="M365.72,544.07 H291.58 l-6.92,29.66 s-4.06,13.73 1,19.77 s52.28,19.77 87,1 a38.68,38.68 0 0 0 1,-24.71 c-4,-13.84 -1,-1 -1,-1 z" fill="#48a548" id="svg_15" class="" fill-opacity="1"/><path d="M314.32,519.46H344a0,0,0,0,1,0,0v28.7a9.85,9.85,0,0,1-9.85,9.85h-10a9.85,9.85,0,0,1-9.85-9.85v-28.7A0,0,0,0,1,314.32,519.46Z" opacity="0.1" id="svg_16"/><path d="M314.32,518.37H344a0,0,0,0,1,0,0v28.7a9.85,9.85,0,0,1-9.85,9.85h-10a9.85,9.85,0,0,1-9.85-9.85v-28.7A0,0,0,0,1,314.32,518.37Z" fill="#fda57d" id="svg_17"/><path d="M314.38,522.64 a42.68,42.68 0 0 0 29.66,0.08000000000000002 v-3.64 H314.38 z" opacity="0.1" id="svg_18"/><circle cx="329.25" cy="482.1199951171875" r="42.5099983215332" fill="#fda57d" id="svg_19"/><path d="M288.62,465.97 h81.06 s-6.92,-32.73 -37.56,-30.64 S288.62,465.97 288.62,465.97 z" fill="#333" id="svg_20"/><ellipse cx="287.6300048828125" cy="480.30999755859375" rx="3.950000047683716" ry="7.409999847412109" fill="#fda57d" id="svg_21"/><ellipse cx="370.6600036621094" cy="480.30999755859375" rx="3.950000047683716" ry="7.409999847412109" fill="#fda57d" id="svg_22"/><path d="M288.62,467.07000000000005 h81.06 s-6.92,-32.73 -37.56,-30.64 S288.62,467.07000000000005 288.62,467.07000000000005 z" opacity="0.1" id="svg_23"/><g opacity="0.5" id="svg_24"><path d="M346.94000000000005,243.85000000000002 a98.85,98.85 0 1 1 154,82 l-0.06000000000000001,0.44000000000000006 A33.84,33.84 0 0 1 489.66999999999996,333.5 l-0.13,-0.44000000000000006 c-4.63,4 -24.12,10.33 -46.51,10.27 h-0.49000000000000005 c-14.18,0 -29.58,-2.5 -43.12,-9.83 c0,0 -0.12000000000000001,-0.26 -0.30000000000000004,-0.7500000000000001 a35.21,35.21 0 0 1 -9.32,-6.38 q-0.08000000000000002,-0.5700000000000001 -0.16000000000000003,-1.12 A98.74,98.74 0 0 1 346.94000000000005,243.85000000000002 z" fill="url(#c1b02b18-c4d9-4578-b739-51fef2fdc4ab)" id="svg_25"/></g><circle cx="445.7900085449219" cy="243.86000061035156" r="95.88999938964844" fill="#f5f5f5" id="svg_26"/><path d="M408.20000000000005,280.38 s-22.85,1.87 -16.8,43.49 a32.82,32.82 0 0 0 10.870000000000001,6.92 l12.85,-43.49 z" fill="#be7c5e" id="svg_27"/><path d="M482.33000000000004,280.38 s22.85,1.87 16.8,43.49 a32.82,32.82 0 0 1 -10.870000000000001,6.92 L475.40999999999997,287.3 z" fill="#be7c5e" id="svg_28"/><path d="M409.17999999999995,212.17000000000002 s-1.7600000000000002,5.12 -4.25,11 c-5.44,13 0.77,62.71 13.78,68 c14.6,6 33.8,9.76 53.75,2.49 c17.33,-6.32 22.68,-63 10.42,-76.75 c-1.44,-1.62 -2.94,-3.23 -4.51,-4.79 z" fill="#333" id="svg_29"/><circle cx="445.8599853515625" cy="209.2100067138672" r="42.5099983215332" fill="#333" id="svg_30"/><path d="M481.9,280.38 H407.76 l-6.92,29.66 s-4.06,13.73 1,19.77 s52.28,19.77 87,1 a38.68,38.68 0 0 0 1,-24.71 c-4,-13.84 -1,-1 -1,-1 z" opacity="0.1" id="svg_31"/><path d="M482.88,280.38 H408.74 l-6.92,29.66 s-4.06,13.73 1,19.77 s52.28,19.77 87,1 a38.68,38.68 0 0 0 1,-24.71 c-4,-13.84 -1,-1 -1,-1 z" opacity="0.1" id="svg_32"/><path d="M482.33000000000004,280.38 H408.20000000000005 l-6.92,29.66 s-4.06,13.73 1,19.77 s52.28,19.77 87,1 a38.68,38.68 0 0 0 1,-24.71 c-4,-13.84 -1,-1 -1,-1 z" fill="#f55f44" id="svg_33"/><path d="M430.93,255.78h29.66a0,0,0,0,1,0,0v28.7a9.85,9.85,0,0,1-9.85,9.85h-10a9.85,9.85,0,0,1-9.85-9.85v-28.7a0,0,0,0,1,0,0Z" opacity="0.1" id="svg_34"/><path d="M430.93,254.68h29.66a0,0,0,0,1,0,0v28.7a9.85,9.85,0,0,1-9.85,9.85h-10a9.85,9.85,0,0,1-9.85-9.85v-28.7A0,0,0,0,1,430.93,254.68Z" fill="#be7c5e" id="svg_35"/><path d="M431,258.95 a42.68,42.68 0 0 0 29.66,0.08000000000000002 v-3.64 H431 z" opacity="0.1" id="svg_36"/><circle cx="445.8599853515625" cy="218.42999267578125" r="42.5099983215332" fill="#be7c5e" id="svg_37"/><path d="M405.23,202.29000000000002 h81.06 s-6.92,-32.73 -37.56,-30.64 S405.23,202.29000000000002 405.23,202.29000000000002 z" fill="#333" id="svg_38"/><ellipse cx="404.239990234375" cy="216.6199951171875" rx="3.950000047683716" ry="7.409999847412109" fill="#be7c5e" id="svg_39"/><ellipse cx="487.2699890136719" cy="216.6199951171875" rx="3.950000047683716" ry="7.409999847412109" fill="#be7c5e" id="svg_40"/><path d="M405.23,203.39 h81.06 s-6.92,-32.73 -37.56,-30.64 S405.23,203.39 405.23,203.39 z" opacity="0.1" id="svg_41"/><g opacity="0.5" id="svg_42"><path d="M5,158.11 V300.83 H229.86 S246.45999999999998,333.5 275,343 c0,0 -9.11,-23.14 0.4,-42.17 H338 V158.11 z" fill="url(#0b093351-16bd-4346-89bf-f32fc0d63148)" id="svg_43"/></g><path d="M14,163 v135 H239 s0,27 27,36 c0,0 -9,-18 0,-36 h63 v-135 z" fill="#fff" id="svg_44"/><rect x="41" y="190" width="180" height="18" fill="#f26464" id="svg_45" class="" fill-opacity="1"/><rect x="41" y="217" width="243" height="18" fill="#f26464" id="svg_46" class="" fill-opacity="1"/><rect x="41" y="244" width="216" height="18" fill="#f26464" id="svg_47" class="" fill-opacity="1"/><g opacity="0.5" id="svg_48"><path d="M770,433.11 V575.83 H545.15 S528.55,608.5 500,618 c0,0 9.11,-23.14 -0.4,-42.17 H437 V433.11 z" fill="url(#81bfca67-d9d1-4d9e-a40d-a000f0d65a64)" id="svg_49"/></g><path d="M761,438 v135 H536 s0,27 -27,36 c0,0 9,-18 0,-36 H446 v-135 z" fill="#fff" id="svg_50"/><rect x="483" y="465" width="180" height="18" fill="#5dcf5d" id="svg_51" class="" fill-opacity="1"/><rect x="483" y="492" width="243" height="18" fill="#5dcf5d" id="svg_52" class="" fill-opacity="1"/><rect x="483" y="519" width="216" height="18" fill="#5dcf5d" id="svg_53" class="" fill-opacity="1"/><g opacity="0.5" id="svg_54"><rect x="84" y="714" width="3" height="17" fill="#47e6b1" id="svg_55"/><rect x="1181.5" y="1230.5" width="3" height="17" transform="rotate(90 892.5000000000001,432.00000000000006) " fill="#47e6b1" id="svg_56"/></g><g opacity="0.5" id="svg_57"><rect x="633" y="192" width="3" height="17" fill="#47e6b1" id="svg_58"/><rect x="1757.5" y="-362.5" width="3" height="17" transform="rotate(90 919.5000000000001,-639) " fill="#47e6b1" id="svg_59"/></g><g opacity="0.5" id="svg_60"><rect x="697" y="612" width="3" height="17" fill="#47e6b1" id="svg_61"/><rect x="2305.5" y="413.5" width="3" height="17" transform="rotate(90 1403.5000000000002,-282.99999999999994) " fill="#47e6b1" id="svg_62"/></g><g opacity="0.5" id="svg_63"><rect x="508" width="3" height="17" fill="#47e6b1" id="svg_64"/><rect x="1315.5" y="-621.5" width="3" height="17" transform="rotate(90 602.5000000000001,-706) " fill="#47e6b1" id="svg_65"/></g><path d="M258.7,712.31 a3.67,3.67 0 0 1 -2,-4.44 a1.77,1.77 0 0 0 0.08000000000000002,-0.41000000000000003 h0 a1.84,1.84 0 0 0 -3.31,-1.22 h0 a1.77,1.77 0 0 0 -0.2,0.36000000000000004 a3.67,3.67 0 0 1 -4.44,2 a1.77,1.77 0 0 0 -0.41000000000000003,-0.08000000000000002 h0 a1.84,1.84 0 0 0 -1.22,3.31 h0 a1.77,1.77 0 0 0 0.36000000000000004,0.2 a3.67,3.67 0 0 1 2,4.44 a1.77,1.77 0 0 0 -0.08000000000000002,0.41000000000000003 h0 a1.84,1.84 0 0 0 3.31,1.22 h0 a1.77,1.77 0 0 0 0.2,-0.36000000000000004 a3.67,3.67 0 0 1 4.44,-2 a1.77,1.77 0 0 0 0.41000000000000003,0.08000000000000002 h0 a1.84,1.84 0 0 0 1.22,-3.31 h0 A1.77,1.77 0 0 0 258.7,712.31 z" fill="#4d8af0" opacity="0.5" id="svg_66"/><path d="M57.89999999999998,394.96 a3.67,3.67 0 0 1 -2,-4.44 a1.77,1.77 0 0 0 0.08000000000000002,-0.41000000000000003 h0 a1.84,1.84 0 0 0 -3.31,-1.22 h0 a1.77,1.77 0 0 0 -0.2,0.36000000000000004 a3.67,3.67 0 0 1 -4.44,2 a1.77,1.77 0 0 0 -0.41000000000000003,-0.08000000000000002 h0 a1.84,1.84 0 0 0 -1.22,3.31 h0 a1.77,1.77 0 0 0 0.36000000000000004,0.2 a3.67,3.67 0 0 1 2,4.44 a1.77,1.77 0 0 0 -0.08000000000000002,0.41000000000000003 h0 A1.84,1.84 0 0 0 52,400.8 h0 a1.77,1.77 0 0 0 0.2,-0.36000000000000004 a3.67,3.67 0 0 1 4.44,-2 a1.77,1.77 0 0 0 0.41000000000000003,0.08000000000000002 h0 a1.84,1.84 0 0 0 1.22,-3.31 h0 A1.77,1.77 0 0 0 57.89999999999998,394.96 z" fill="#4d8af0" opacity="0.5" id="svg_67"/><path d="M166.89999999999998,481.96000000000004 a3.67,3.67 0 0 1 -2,-4.44 a1.77,1.77 0 0 0 0.08000000000000002,-0.41000000000000003 h0 a1.84,1.84 0 0 0 -3.31,-1.22 h0 a1.77,1.77 0 0 0 -0.2,0.36000000000000004 a3.67,3.67 0 0 1 -4.44,2 a1.77,1.77 0 0 0 -0.41000000000000003,-0.08000000000000002 h0 a1.84,1.84 0 0 0 -1.22,3.31 h0 a1.77,1.77 0 0 0 0.36000000000000004,0.2 a3.67,3.67 0 0 1 2,4.44 a1.77,1.77 0 0 0 -0.08000000000000002,0.41000000000000003 h0 A1.84,1.84 0 0 0 161,487.79999999999995 h0 a1.77,1.77 0 0 0 0.2,-0.36000000000000004 a3.67,3.67 0 0 1 4.44,-2 a1.77,1.77 0 0 0 0.41000000000000003,0.08000000000000002 h0 a1.84,1.84 0 0 0 1.22,-3.31 h0 A1.77,1.77 0 0 0 166.89999999999998,481.96000000000004 z" fill="#4d8af0" opacity="0.5" id="svg_68"/><path d="M788.9,717.96 a3.67,3.67 0 0 1 -2,-4.44 a1.77,1.77 0 0 0 0.08000000000000002,-0.41000000000000003 h0 a1.84,1.84 0 0 0 -3.31,-1.22 h0 a1.77,1.77 0 0 0 -0.2,0.36000000000000004 a3.67,3.67 0 0 1 -4.44,2 a1.77,1.77 0 0 0 -0.41000000000000003,-0.08000000000000002 h0 a1.84,1.84 0 0 0 -1.22,3.31 h0 a1.77,1.77 0 0 0 0.36000000000000004,0.2 a3.67,3.67 0 0 1 2,4.44 a1.77,1.77 0 0 0 -0.08000000000000002,0.41000000000000003 h0 A1.84,1.84 0 0 0 783,723.8 h0 a1.77,1.77 0 0 0 0.2,-0.36000000000000004 a3.67,3.67 0 0 1 4.44,-2 a1.77,1.77 0 0 0 0.41000000000000003,0.08000000000000002 h0 a1.84,1.84 0 0 0 1.22,-3.31 h0 A1.77,1.77 0 0 0 788.9,717.96 z" fill="#4d8af0" opacity="0.5" id="svg_69"/><circle cx="6" cy="659" r="6" fill="#f55f44" opacity="0.5" id="svg_70"/><circle cx="683" cy="64" r="6" fill="#4d8af0" opacity="0.5" id="svg_71"/><circle cx="104" cy="76" r="6" fill="#47e6b1" opacity="0.5" id="svg_72"/><circle cx="689" cy="346" r="6" fill="#f55f44" opacity="0.5" id="svg_73"/></g></svg>